<?xml version="1.0" encoding="UTF-8"?>
<svg width="125px" height="38px" viewBox="0 0 125 38" version="1.1" xmlns="http://www.w3.org/2000/svg" xmlns:xlink="http://www.w3.org/1999/xlink">
    <g id="billed-page" stroke="none" stroke-width="1" fill="none" fill-rule="evenodd">
        <g id="billed-board" transform="translate(-681.000000, -343.000000)" fill="#FFFFFF" fill-rule="nonzero">
            <g id="billed-logo" transform="translate(681.000000, 343.000000)">
                <path d="M56.89,35 C60.53,35 63.505,31.955 63.505,28.07 L63.505,26.39 C63.505,24.185 62.175,22.085 60.005,20.79 C61.51,19.635 62.49,18.165 62.49,16.415 L62.49,12.81 C62.49,9.275 59.76,6.405 56.4,6.405 L49.575,6.405 L49.61,35 L56.89,35 Z M56.4,20.16 L51.885,20.16 L51.885,8.715 L56.4,8.715 C58.395,8.715 60.145,10.115 60.145,11.76 L60.145,16.415 C60.145,18.41 58.395,20.16 56.4,20.16 Z M56.89,32.69 L51.885,32.69 L51.885,22.12 L56.89,22.12 C59.2,22.12 61.16,24.08 61.16,26.39 L61.16,29.12 C61.16,31.08 59.2,32.69 56.89,32.69 Z M69.245,35 L69.245,6.405 L66.795,6.405 L66.83,35 L69.245,35 Z M82.65,35 L82.65,32.69 L75.615,32.69 L75.615,6.405 L73.305,6.405 L73.34,35 L82.65,35 Z M94.585,35 L94.585,32.69 L87.55,32.69 L87.55,6.405 L85.24,6.405 L85.275,35 L94.585,35 Z M108.41,35 L108.41,32.69 L99.73,32.69 L99.73,19.285 L107.465,19.285 L107.465,17.325 L99.73,17.325 L99.73,8.715 L108.41,8.715 L108.41,6.405 L97.42,6.405 L97.455,35 L108.41,35 Z M117.3,35 C120.485,35 123.39,32.55 123.39,29.225 L123.39,12.18 C123.39,8.855 120.485,6.405 117.3,6.405 L111.21,6.405 L111.245,35 L117.3,35 Z M117.3,32.76 L113.52,32.76 L113.52,8.645 L117.3,8.645 C119.225,8.645 121.045,10.115 121.045,12.18 L121.045,29.225 C121.045,31.29 119.225,32.76 117.3,32.76 Z" id="billed"></path>
                <g id="seedling-solid">
                    <path d="M5,5 L0,5 C0,14.6640625 7.8359375,22.5 17.5,22.5 L17.5,33.75 C17.5,34.4375 18.0625,35 18.75,35 L21.25,35 C21.9375,35 22.5,34.4375 22.5,33.75 L22.5,22.5 C22.5,12.8359375 14.6640625,5 5,5 Z M35,0 C28.421875,0 22.703125,3.6328125 19.7109375,9 C21.875,11.359375 23.4765625,14.2265625 24.3203125,17.40625 C33.125,16.4921875 40,9.0546875 40,0 L35,0 Z" id="Shape"></path>
                </g>
            </g>
        </g>
    </g>
</svg>